<?xml version="1.0" encoding="utf-8"?>
<!-- Generator: Adobe Illustrator 18.0.0, SVG Export Plug-In . SVG Version: 6.00 Build 0)  -->
<!DOCTYPE svg PUBLIC "-//W3C//DTD SVG 1.1//EN" "http://www.w3.org/Graphics/SVG/1.1/DTD/svg11.dtd">
<svg version="1.1" id="Layer_1" xmlns="http://www.w3.org/2000/svg" xmlns:xlink="http://www.w3.org/1999/xlink" x="0px" y="0px"
	 viewBox="0 0 1000 500" enable-background="new 0 0 1000 500" xml:space="preserve">
<g>
	<g>
		<linearGradient id="SVGID_1_" gradientUnits="userSpaceOnUse" x1="674.0507" y1="459.4325" x2="507.0248" y2="36.6775">
			<stop  offset="0" style="stop-color:#330077"/>
			<stop  offset="1" style="stop-color:#882288"/>
		</linearGradient>
		<path fill="url(#SVGID_1_)" d="M767.5,183.5c-9.5-22.4-23.1-42.6-40.4-59.9c-17.3-17.3-37.4-30.9-59.9-40.4
			c-23.2-9.8-47.9-14.8-73.3-14.8c-25.4,0-50.1,5-73.3,14.8c-22.4,9.5-42.6,23.1-59.9,40.4s-30.9,37.4-40.4,59.9
			c-9.8,23.2-14.8,47.9-14.8,73.3c0,25.4,5,50.1,14.8,73.3c9.5,22.4,23.1,42.6,40.4,59.9s37.4,30.9,59.9,40.4
			c23.2,9.8,47.9,14.8,73.3,14.8c25.4,0,50.1-5,73.3-14.8c22.4-9.5,42.6-23.1,59.9-40.4c17.3-17.3,30.9-37.4,40.4-59.9
			c9.8-23.2,14.8-47.9,14.8-73.3C782.3,231.4,777.4,206.7,767.5,183.5z M732.9,256.8c0,76.6-62.3,138.9-138.9,138.9
			s-138.9-62.3-138.9-138.9S517.4,117.9,594,117.9S732.9,180.2,732.9,256.8z"/>
	</g>
	<g>
		<linearGradient id="SVGID_2_" gradientUnits="userSpaceOnUse" x1="250.7274" y1="58.8651" x2="295.0789" y2="502.3803">
			<stop  offset="0" style="stop-color:#FF00AA"/>
			<stop  offset="1" style="stop-color:#5511BB"/>
		</linearGradient>
		<path fill="url(#SVGID_2_)" d="M38.9,171.8h287.4v156.6l-34.1-23.8c2.4-9.2,3.6-18.9,3.6-28.8v-20.4c0-20.5-7.4-38.2-22.1-52.7
			c-14.6-14.5-32.3-21.8-52.4-21.8h-4.9c-18.5,0-34.6,6.7-47.7,19.8c-13.2,13.2-19.8,29.2-19.8,47.7v33.1h49.4v-33.1
			c0-5.2,1.7-9.3,5.3-12.9s7.7-5.3,12.9-5.3h4.9c6.8,0,12.4,2.4,17.3,7.3c4.9,4.9,7.3,10.7,7.3,17.8v20.4c0,14.9-5.3,27.8-15.7,38.3
			c-10.4,10.5-23.2,15.9-38,15.9h-25.1c-14.9,0-27.7-5.4-38.3-15.9c-10.6-10.5-15.9-23.4-15.9-38.3v-47.9H63.6v47.9
			c0,28.7,10.2,53.3,30.2,73.4c20,20,44.7,30.2,73.4,30.2h25.1c28.3,0,53-10.2,73.4-30.2c0.5-0.5,1-1,1.5-1.5l63,44h45.6V171.8h30.3
			v219.9h49.4V171.8h24.7V122H38.9V171.8z"/>
		<linearGradient id="SVGID_3_" gradientUnits="userSpaceOnUse" x1="819.8315" y1="2.0651" x2="864.1831" y2="445.5803">
			<stop  offset="0" style="stop-color:#FF00AA"/>
			<stop  offset="1" style="stop-color:#5511BB"/>
		</linearGradient>
		<path fill="url(#SVGID_3_)" d="M707.6,122v49.9H887v1.1c-2,0.6-4.2,1.2-6.5,2c-12.8,3.6-27.3,7.8-43.1,12.6
			c-15.9,4.8-30.2,9.3-42.4,13.6c-19.1,6.6-34.5,17.7-45.7,33c-11.3,15.4-17.1,32.7-17.1,51.6v31.6l157.9,73.9l1.1,0.5h45.1V171.8
			h24.7V122H707.6z M794.2,258.2c0.4-0.3,0.8-0.6,1.1-1c0.1,0,0.1-0.1,0.2-0.1c0.3-0.2,0.6-0.5,0.9-0.7c0.1-0.1,0.2-0.2,0.4-0.3
			c0.3-0.2,0.5-0.4,0.8-0.6c0.2-0.1,0.4-0.3,0.6-0.4c3.7-2.6,8-5,13-7.2c2.5-0.9,5-1.8,7.7-2.7c10-3.5,21.3-7.1,33.7-10.9
			c10.8-3.2,20.9-6.2,30.2-8.7c1.4-0.4,2.8-0.8,4.2-1.2v110.9l-105.4-49.6c0-1,0-2.1,0.1-3.1C782.4,273,786.6,264.9,794.2,258.2z"/>
		<linearGradient id="SVGID_4_" gradientUnits="userSpaceOnUse" x1="756.633" y1="8.2745" x2="800.9845" y2="451.7898">
			<stop  offset="0" style="stop-color:#FF00AA"/>
			<stop  offset="1" style="stop-color:#5511BB"/>
		</linearGradient>
		<polygon fill="url(#SVGID_4_)" points="755,398.1 813.6,425.3 834.6,381 775.9,353.1 		"/>
	</g>
	<linearGradient id="SVGID_5_" gradientUnits="userSpaceOnUse" x1="354.0143" y1="478.9192" x2="800.0311" y2="53.4734">
		<stop  offset="0" style="stop-color:#FFF200"/>
		<stop  offset="1" style="stop-color:#F7941E"/>
	</linearGradient>
	<polygon fill="url(#SVGID_5_)" points="793.5,3.1 413,238.3 568.8,290.2 394.5,496.9 775,261.7 619.2,209.8 	"/>
</g>
</svg>
