<?xml version="1.0" encoding="utf-8"?>
<!-- Generator: Adobe Illustrator 18.0.0, SVG Export Plug-In . SVG Version: 6.00 Build 0)  -->
<!DOCTYPE svg PUBLIC "-//W3C//DTD SVG 1.1//EN" "http://www.w3.org/Graphics/SVG/1.1/DTD/svg11.dtd">
<svg version="1.1" id="Layer_1" xmlns="http://www.w3.org/2000/svg" xmlns:xlink="http://www.w3.org/1999/xlink" x="0px" y="0px"
	 viewBox="0 0 1000 1000" enable-background="new 0 0 1000 1000" xml:space="preserve">
<g>
	<linearGradient id="SVGID_1_" gradientUnits="userSpaceOnUse" x1="241.8338" y1="716.1141" x2="927.225" y2="56.5326">
		<stop  offset="0.1551" style="stop-color:#FF00AA;stop-opacity:0.9"/>
		<stop  offset="0.4654" style="stop-color:#D109B3;stop-opacity:0.855"/>
		<stop  offset="0.7069" style="stop-color:#B40EB8;stop-opacity:0.82"/>
		<stop  offset="0.8449" style="stop-color:#A910BA;stop-opacity:0.8"/>
		<stop  offset="0.8788" style="stop-color:#8C10BA;stop-opacity:0.6253"/>
		<stop  offset="0.9318" style="stop-color:#6511BB;stop-opacity:0.352"/>
		<stop  offset="0.974" style="stop-color:#4D11BB;stop-opacity:0.134"/>
		<stop  offset="1" style="stop-color:#4411BB;stop-opacity:0"/>
	</linearGradient>
	<path fill="url(#SVGID_1_)" d="M634.7,354.2c-31.5-9.1-64.8-13.8-96.4-17.7c-30.7-3.8-48.9-9.1-74.7-26.6
		c-25.4-17.2-47.2-39.7-64.4-65.1C301.5,101.2,59.3,194,71.5,398.3c3.1,52.3,18,103.3,51,144.7c31.8,39.9,80.4,57.6,98.9,106.8
		c34.4,91.8,87.7,199.6,200.2,202.5c34.2,0.9,61.7-10.3,91.8-24.7c31.8-15.2,70-11.5,103.8-3.5c34,8.1,68.8,18.6,102.6,3.6
		C901.4,746.5,843.9,495.8,714,393C690.6,374.5,663.4,362.5,634.7,354.2z"/>
	<linearGradient id="SVGID_2_" gradientUnits="userSpaceOnUse" x1="288.1475" y1="400.3673" x2="989.6169" y2="400.3673">
		<stop  offset="0.2" style="stop-color:#FFF200"/>
		<stop  offset="1" style="stop-color:#F7941E"/>
	</linearGradient>
	<path fill="url(#SVGID_2_)" d="M653.4,131.5c23.3-5.8,46.4-2.3,67.4,17.6c39,37.1,38.6,98.3,104.1,101c45.5,1.9,87.8-9.2,118,34.1
		c14.9,21.4,21.6,47.3,28,72.5c15.7,61.9,42.6,156.5-24.6,197c-36.9,22.3-75.9,22.7-115.5,8.4c-25.6-9.2-53.6-19.3-79.2-10.1
		c-31.3,11.2-46,45.8-67.5,71.1c-45.6,53.6-130.9,65-187.9,23.3c-53.3-38.9-71-108.4-119-152.3c-20.2-18.4-42.4-34.8-59.9-55.8
		c-21.5-25.9-33.5-63.5-27.4-97c14.5-80.1,98-74.5,160.4-83.7C534.4,245.1,571.8,151.8,653.4,131.5z"/>
	<g>
		
			<linearGradient id="SVGID_3_" gradientUnits="userSpaceOnUse" x1="225.9801" y1="545.3201" x2="756.066" y2="545.3201" gradientTransform="matrix(0.5161 -0.8566 0.8566 0.5161 -202.2876 658.8095)">
			<stop  offset="0" style="stop-color:#441181;stop-opacity:0.8"/>
			<stop  offset="0.1576" style="stop-color:#4C1287;stop-opacity:0.8"/>
			<stop  offset="0.4038" style="stop-color:#621696;stop-opacity:0.8"/>
			<stop  offset="0.706" style="stop-color:#861BAF;stop-opacity:0.8"/>
			<stop  offset="1" style="stop-color:#B022CC;stop-opacity:0.8"/>
		</linearGradient>
		<path fill="url(#SVGID_3_)" d="M291.2,382.9c-75.5,125.4-35.1,288.3,90.2,363.8s288.3,35.1,363.8-90.2s35.1-288.3-90.2-363.8
			S366.7,257.5,291.2,382.9z M683.2,619.1c-54.9,91.1-173.3,120.5-264.4,65.6c-91.1-54.9-120.5-173.3-65.6-264.4
			s173.3-120.5,264.4-65.6C708.8,409.5,738.1,527.9,683.2,619.1z"/>
	</g>
	<linearGradient id="SVGID_4_" gradientUnits="userSpaceOnUse" x1="214.7065" y1="903.9324" x2="707.5912" y2="279.8321">
		<stop  offset="0.1283" style="stop-color:#4411BB"/>
		<stop  offset="0.6738" style="stop-color:#C700AA"/>
	</linearGradient>
	<polygon fill="url(#SVGID_4_)" points="556.9,462.8 805.2,168.3 262,503.9 479.6,576.5 231.2,871 774.4,535.3 	"/>
	<linearGradient id="SVGID_5_" gradientUnits="userSpaceOnUse" x1="57.6859" y1="792.1828" x2="164.761" y2="656.6021">
		<stop  offset="0.2" style="stop-color:#FFF200"/>
		<stop  offset="1" style="stop-color:#F7941E"/>
	</linearGradient>
	<circle fill="url(#SVGID_5_)" cx="108" cy="728.5" r="75.1"/>
	<linearGradient id="SVGID_6_" gradientUnits="userSpaceOnUse" x1="180.2674" y1="194.6879" x2="212.7761" y2="153.5247">
		<stop  offset="0.2" style="stop-color:#FFF200;stop-opacity:0.8"/>
		<stop  offset="1" style="stop-color:#F7941E"/>
	</linearGradient>
	<circle fill="url(#SVGID_6_)" cx="195.5" cy="175.4" r="22.8"/>
	<linearGradient id="SVGID_7_" gradientUnits="userSpaceOnUse" x1="7.2509" y1="452.2625" x2="270.4978" y2="452.2625">
		<stop  offset="0" style="stop-color:#BF00ED;stop-opacity:0.8"/>
		<stop  offset="3.805196e-002" style="stop-color:#B801EA;stop-opacity:0.7696"/>
		<stop  offset="0.3546" style="stop-color:#8708D6;stop-opacity:0.5163"/>
		<stop  offset="0.6319" style="stop-color:#620DC7;stop-opacity:0.2945"/>
		<stop  offset="0.8563" style="stop-color:#4C10BE;stop-opacity:0.1149"/>
		<stop  offset="1" style="stop-color:#4411BB;stop-opacity:0"/>
	</linearGradient>
	<circle fill="url(#SVGID_7_)" cx="57.6" cy="452.3" r="50.3"/>
	<linearGradient id="SVGID_8_" gradientUnits="userSpaceOnUse" x1="738.1208" y1="644.8157" x2="929.6409" y2="942.5423">
		<stop  offset="0.2" style="stop-color:#FFF200"/>
		<stop  offset="1" style="stop-color:#F7941E"/>
	</linearGradient>
	<path fill="url(#SVGID_8_)" d="M824,871c-51.1,0-92.6-41.6-92.6-92.6c0-51.1,41.6-92.6,92.6-92.6c51.1,0,92.6,41.6,92.6,92.6
		C916.7,829.4,875.1,871,824,871z M824,728.2c-27.6,0-50.1,22.5-50.1,50.1c0,27.6,22.5,50.1,50.1,50.1c27.6,0,50.1-22.5,50.1-50.1
		C874.2,750.7,851.7,728.2,824,728.2z"/>
	<linearGradient id="SVGID_9_" gradientUnits="userSpaceOnUse" x1="481.8026" y1="116.8113" x2="582.6858" y2="273.6389">
		<stop  offset="0.1551" style="stop-color:#FF00AA;stop-opacity:0.9"/>
		<stop  offset="0.4654" style="stop-color:#D109B3;stop-opacity:0.855"/>
		<stop  offset="0.7069" style="stop-color:#B40EB8;stop-opacity:0.82"/>
		<stop  offset="0.8449" style="stop-color:#A910BA;stop-opacity:0.8"/>
		<stop  offset="0.8788" style="stop-color:#8C10BA;stop-opacity:0.6253"/>
		<stop  offset="0.9318" style="stop-color:#6511BB;stop-opacity:0.352"/>
		<stop  offset="0.974" style="stop-color:#4D11BB;stop-opacity:0.134"/>
		<stop  offset="1" style="stop-color:#4411BB;stop-opacity:0"/>
	</linearGradient>
	<path fill="url(#SVGID_9_)" d="M527.1,236c-26.9,0-48.8-21.9-48.8-48.8c0-26.9,21.9-48.8,48.8-48.8c26.9,0,48.8,21.9,48.8,48.8
		C575.8,214.1,554,236,527.1,236z M527.1,160.7c-14.6,0-26.4,11.8-26.4,26.4c0,14.6,11.8,26.4,26.4,26.4c14.6,0,26.4-11.8,26.4-26.4
		C553.5,172.6,541.6,160.7,527.1,160.7z"/>
	<linearGradient id="SVGID_10_" gradientUnits="userSpaceOnUse" x1="881.856" y1="159.5941" x2="1163.8232" y2="557.9548">
		<stop  offset="8.021390e-002" style="stop-color:#FF00AA"/>
		<stop  offset="0.2173" style="stop-color:#DC03AD;stop-opacity:0.851"/>
		<stop  offset="0.4915" style="stop-color:#9B09B3;stop-opacity:0.5528"/>
		<stop  offset="0.7229" style="stop-color:#6C0DB7;stop-opacity:0.3013"/>
		<stop  offset="0.8993" style="stop-color:#4F10BA;stop-opacity:0.1095"/>
		<stop  offset="1" style="stop-color:#4411BB;stop-opacity:0"/>
	</linearGradient>
	<circle fill="url(#SVGID_10_)" cx="927.2" cy="223.6" r="65.6"/>
	
		<linearGradient id="SVGID_11_" gradientUnits="userSpaceOnUse" x1="294.2878" y1="71.0924" x2="403.4641" y2="225.3355" gradientTransform="matrix(-0.7071 0.7071 -0.7071 -0.7071 1179.5757 432.6609)">
		<stop  offset="8.021390e-002" style="stop-color:#FF00AA"/>
		<stop  offset="0.2173" style="stop-color:#DC03AD;stop-opacity:0.851"/>
		<stop  offset="0.4915" style="stop-color:#9B09B3;stop-opacity:0.5528"/>
		<stop  offset="0.7229" style="stop-color:#6C0DB7;stop-opacity:0.3013"/>
		<stop  offset="0.8993" style="stop-color:#4F10BA;stop-opacity:0.1095"/>
		<stop  offset="1" style="stop-color:#4411BB;stop-opacity:0"/>
	</linearGradient>
	<circle fill="url(#SVGID_11_)" cx="891.3" cy="585.4" r="25.4"/>
	
		<linearGradient id="SVGID_12_" gradientUnits="userSpaceOnUse" x1="-235.3956" y1="1221.8416" x2="-183.8514" y2="1156.5752" gradientTransform="matrix(0.3686 -0.9296 0.9296 0.3686 -387.9886 190.0426)">
		<stop  offset="0" style="stop-color:#7722CC"/>
		<stop  offset="0.3119" style="stop-color:#621BC5;stop-opacity:0.6881"/>
		<stop  offset="0.731" style="stop-color:#4C14BE;stop-opacity:0.269"/>
		<stop  offset="1" style="stop-color:#4411BB;stop-opacity:0"/>
	</linearGradient>
	<circle fill="url(#SVGID_12_)" cx="649.5" cy="839.2" r="21.4"/>
</g>
</svg>
