<?xml version="1.0" encoding="utf-8"?>
<!-- Generator: Adobe Illustrator 18.0.0, SVG Export Plug-In . SVG Version: 6.00 Build 0)  -->
<!DOCTYPE svg PUBLIC "-//W3C//DTD SVG 1.1//EN" "http://www.w3.org/Graphics/SVG/1.1/DTD/svg11.dtd">
<svg version="1.1" id="Layer_1" xmlns="http://www.w3.org/2000/svg" xmlns:xlink="http://www.w3.org/1999/xlink" x="0px" y="0px"
	 viewBox="0 0 1000 1000" enable-background="new 0 0 1000 1000" xml:space="preserve">
<g>
	<linearGradient id="SVGID_1_" gradientUnits="userSpaceOnUse" x1="449.4155" y1="645.7859" x2="1023.6229" y2="749.2146">
		<stop  offset="0.2" style="stop-color:#FFF200"/>
		<stop  offset="1" style="stop-color:#F7941E"/>
	</linearGradient>
	<path fill="url(#SVGID_1_)" d="M463.5,527.7v72h402.8v216.4l-45.5-31.8c3.3-12.8,4.9-26.2,4.9-39.9v-26.6c0-29-10.5-54.1-31.2-74.6
		c-20.7-20.4-45.7-30.8-74.1-30.8h-6.9c-26.2,0-49,9.4-67.6,28.1c-18.7,18.7-28.1,41.4-28.1,67.6v28.4h71.3V708
		c0-6.9,2.3-12.6,7.1-17.3c4.8-4.8,10.5-7.1,17.3-7.1h6.9c9.2,0,16.9,3.3,23.5,9.9c6.7,6.7,9.9,14.6,9.9,24.3v26.6
		c0,20.8-7.1,38.2-21.6,52.9c-14.6,14.8-31.8,21.9-52.5,21.9h-35.2c-20.8,0-38.2-7.2-52.9-22c-14.8-14.8-22-32.1-22-52.9v-68.1H498
		v68.1c0,40.5,14.3,75.3,42.6,103.5c28.2,28.3,63.1,42.6,103.5,42.6h35.2c40,0,74.8-14.3,103.5-42.5c0.5-0.5,1-1,1.5-1.5l87.8,61.4
		h65.3V599.7h34.6v-72H463.5L463.5,527.7z"/>
	<g>
		<linearGradient id="SVGID_2_" gradientUnits="userSpaceOnUse" x1="38.3422" y1="147.9731" x2="491.2885" y2="249.6185">
			<stop  offset="0.2" style="stop-color:#FFF200"/>
			<stop  offset="1" style="stop-color:#F7941E"/>
		</linearGradient>
		<path fill="url(#SVGID_2_)" d="M429.3,261.5l8.5-82.5H318.2l4.8-22.8h135.8V99.6H168.9v56.5h90.8l-4.6,22.8h-72.4v57.6h59.1
			l-6.7,24.9H163v57.2h300.1v-57.2H429.3z M371.9,236.6l-3.2,24.9h-69.2l6.3-24.9H371.9z"/>
		<linearGradient id="SVGID_3_" gradientUnits="userSpaceOnUse" x1="-6.1869" y1="346.4009" x2="446.7594" y2="448.0463">
			<stop  offset="0.2" style="stop-color:#FFF200"/>
			<stop  offset="1" style="stop-color:#F7941E"/>
		</linearGradient>
		<path fill="url(#SVGID_3_)" d="M189.1,497.5h60.7v-22.3h123.1v22.3h60.7V337.8H189.1V497.5z M372.9,394.6v23H249.8v-23H372.9z"/>
		<linearGradient id="SVGID_4_" gradientUnits="userSpaceOnUse" x1="-3.1043" y1="332.6644" x2="449.842" y2="434.3098">
			<stop  offset="0.2" style="stop-color:#FFF200"/>
			<stop  offset="1" style="stop-color:#F7941E"/>
		</linearGradient>
		<path fill="url(#SVGID_4_)" d="M149.4,380.8c-6.9,5.6-13.1,10.5-18.5,14.6V215.3H27.9v59.8h42.2v154.1c0,5.6-1.8,9.6-6,13.1
			l-6.8,5.8l29,52.1l9.6-5.6c24.5-14.3,51.6-34.2,80.4-59.2l5.5-4.8l-20.3-59.9L149.4,380.8z"/>
		<linearGradient id="SVGID_5_" gradientUnits="userSpaceOnUse" x1="41.5759" y1="133.5631" x2="494.5222" y2="235.2085">
			<stop  offset="0.2" style="stop-color:#FFF200"/>
			<stop  offset="1" style="stop-color:#F7941E"/>
		</linearGradient>
		<path fill="url(#SVGID_5_)" d="M97.8,198.8l5.8,9.6l51.2-32.9l-5.2-9c-15.8-27.5-35.8-53.7-59.4-77.9l-6.3-6.5l-49.9,33.5l8.5,9.3
			C63.8,148.6,82.5,173.4,97.8,198.8z"/>
	</g>
	<g>
		<g>
			
				<linearGradient id="SVGID_6_" gradientUnits="userSpaceOnUse" x1="538.0953" y1="997.5657" x2="153.4881" y2="593.7282" gradientTransform="matrix(0.7071 -0.7071 0.7071 0.7071 -384.084 405.7061)">
				<stop  offset="0" style="stop-color:#5533BB"/>
				<stop  offset="0.1293" style="stop-color:#632FBA"/>
				<stop  offset="0.3751" style="stop-color:#8923B6"/>
				<stop  offset="0.7084" style="stop-color:#C511B0"/>
				<stop  offset="1" style="stop-color:#FF00AA"/>
			</linearGradient>
			<path fill="url(#SVGID_6_)" d="M114.2,627.4c-23.5-23.5-39.8-51.3-49.3-80.9c-14.7,69.3,4.7,143.9,58.3,197.5
				c45.2,45.2,105.3,65.8,164.5,62.6l-0.2,82.4L431,745.5L287.5,602v82.5C226.1,693.5,161.5,674.8,114.2,627.4z"/>
		</g>
	</g>
	<g>
		<g>
			
				<linearGradient id="SVGID_7_" gradientUnits="userSpaceOnUse" x1="683.4496" y1="1052.1058" x2="298.8424" y2="648.2684" gradientTransform="matrix(-0.7071 0.7071 -0.7071 -0.7071 1488.7395 539.0354)">
				<stop  offset="0" style="stop-color:#5533BB"/>
				<stop  offset="0.1293" style="stop-color:#632FBA"/>
				<stop  offset="0.3751" style="stop-color:#8923B6"/>
				<stop  offset="0.7084" style="stop-color:#C511B0"/>
				<stop  offset="1" style="stop-color:#FF00AA"/>
			</linearGradient>
			<path fill="url(#SVGID_7_)" d="M849.2,381.5c23.5,23.5,39.8,51.3,49.3,80.9c14.7-69.3-4.7-143.9-58.3-197.5
				C795,219.7,734.9,199,675.6,202.3l0.2-82.4L532.3,263.5L675.8,407v-82.5C737.2,315.5,801.8,334.1,849.2,381.5z"/>
		</g>
	</g>
</g>
</svg>
