<?xml version="1.0" encoding="utf-8"?>
<!-- Generator: Adobe Illustrator 18.0.0, SVG Export Plug-In . SVG Version: 6.00 Build 0)  -->
<!DOCTYPE svg PUBLIC "-//W3C//DTD SVG 1.1//EN" "http://www.w3.org/Graphics/SVG/1.1/DTD/svg11.dtd">
<svg version="1.1" id="Layer_1" xmlns="http://www.w3.org/2000/svg" xmlns:xlink="http://www.w3.org/1999/xlink" x="0px" y="0px"
	 viewBox="0 0 1000 1000" enable-background="new 0 0 1000 1000" xml:space="preserve">
<linearGradient id="SVGID_1_" gradientUnits="userSpaceOnUse" x1="16.3192" y1="500" x2="830.4614" y2="500">
	<stop  offset="0.2" style="stop-color:#FFF200"/>
	<stop  offset="1" style="stop-color:#F7941E"/>
</linearGradient>
<path fill="url(#SVGID_1_)" d="M423,92.9C198.3,92.9,16.3,275.3,16.3,500s182,407.1,406.7,407.1c225.1,0,407.5-182.4,407.5-407.1
	S648.1,92.9,423,92.9z M705.1,337.2H585c-13-50.9-31.8-99.7-56.2-144.9C603.7,217.9,666,270,705.1,337.2z M423.4,176
	c33.8,48.8,60.2,103,77.8,161.2H345.6C363.1,279,389.6,224.8,423.4,176z M108.3,581.4c-6.5-26.1-10.6-53.3-10.6-81.4
	s4.1-55.4,10.6-81.4h137.6c-3.3,26.9-5.7,53.7-5.7,81.4s2.4,54.5,5.7,81.4H108.3z M141.7,662.8h120.1c13,50.9,31.8,99.7,56.2,144.9
	C243.1,782.1,180.8,730.4,141.7,662.8z M261.8,337.2H141.7c39.1-67.6,101.4-119.3,176.3-144.9C293.5,237.4,274.8,286.3,261.8,337.2z
	 M423.4,824c-33.8-48.8-60.2-103-77.8-161.2h155.5C483.6,721,457.2,775.2,423.4,824z M518.6,581.4H328.1
	c-3.7-26.9-6.5-53.7-6.5-81.4s2.8-55,6.5-81.4h190.5c3.7,26.5,6.5,53.7,6.5,81.4S522.3,554.5,518.6,581.4z M528.8,807.7
	c24.4-45.2,43.1-94,56.2-144.9h120.1C666,730,603.7,782.1,528.8,807.7z M600.9,581.4c3.3-26.9,5.7-53.7,5.7-81.4s-2.4-54.5-5.7-81.4
	h137.6C745,444.6,749,471.9,749,500c0,28.1-4.1,55.4-10.6,81.4H600.9z"/>
<g>
	
		<linearGradient id="SVGID_2_" gradientUnits="userSpaceOnUse" x1="84.5725" y1="315.2501" x2="894.4409" y2="315.2501" gradientTransform="matrix(-9.007883e-002 0.9959 0.9959 9.007883e-002 382.8211 0.3908)">
		<stop  offset="0" style="stop-color:#5533BB"/>
		<stop  offset="0.1293" style="stop-color:#632FBA"/>
		<stop  offset="0.3751" style="stop-color:#8923B6"/>
		<stop  offset="0.7084" style="stop-color:#C511B0"/>
		<stop  offset="1" style="stop-color:#FF00AA"/>
	</linearGradient>
	<path fill="url(#SVGID_2_)" d="M401,960.9l299.5-249.8c67,33.4,149.8,25.7,212.4-26.4c65.8-54.9,86.1-144.4,59.4-219.8L830.9,582.8
		l-82.4-98.7L890.3,363c-69.2-42.8-161.1-35.9-226.9,19c-62.5,52.2-85,132.3-64.1,204.2L299.7,836.1c-13.2,11-14.8,29.1-3.8,42.3
		l63.1,75.7C369.8,970.2,390.9,972.1,401,960.9z"/>
</g>
</svg>
