<?xml version="1.0" encoding="utf-8"?>
<!-- Generator: Adobe Illustrator 18.0.0, SVG Export Plug-In . SVG Version: 6.00 Build 0)  -->
<!DOCTYPE svg PUBLIC "-//W3C//DTD SVG 1.1//EN" "http://www.w3.org/Graphics/SVG/1.1/DTD/svg11.dtd">
<svg version="1.1" id="Layer_1" xmlns="http://www.w3.org/2000/svg" xmlns:xlink="http://www.w3.org/1999/xlink" x="0px" y="0px"
	 viewBox="0 0 1000 1000" enable-background="new 0 0 1000 1000" xml:space="preserve">
<linearGradient id="SVGID_1_" gradientUnits="userSpaceOnUse" x1="4.1" y1="500" x2="894.6" y2="500" gradientTransform="matrix(1 0 0 -1 0 1000)">
	<stop  offset="0.2" style="stop-color:#FFF200"/>
	<stop  offset="1" style="stop-color:#F7941E"/>
</linearGradient>
<path fill="url(#SVGID_1_)" d="M4.1,167.2v126h705.2v378.9l-79.7-55.7c5.7-22.4,8.6-45.8,8.6-69.9v-46.6
	c0-50.8-18.4-94.7-54.7-130.6c-36.3-35.8-80-54-129.8-54h-12.1c-45.9,0-85.8,16.5-118.4,49.2C290.5,397.2,274,437,274,482.9v49.7
	h124.8v-49.7c0-12,4.1-22,12.5-30.3c8.4-8.4,18.3-12.5,30.3-12.5h12.1c16.1,0,29.6,5.7,41.2,17.3c11.7,11.7,17.3,25.6,17.3,42.5
	v46.6c0,36.5-12.4,66.8-37.9,92.7s-55.6,38.4-92,38.4h-61.7c-36.5,0-66.8-12.6-92.6-38.5c-25.9-25.9-38.5-56.2-38.5-92.6V427.3H64.6
	v119.2c0,70.9,25.1,131.9,74.6,181.3c49.4,49.5,110.5,74.6,181.3,74.6h61.7c70,0,131-25.1,181.2-74.5c0.9-0.9,1.8-1.8,2.6-2.6
	l153.7,107.5h114.4V293.2h60.5v-126H4.1z"/>
<linearGradient id="SVGID_2_" gradientUnits="userSpaceOnUse" x1="57.7995" y1="325.0081" x2="867.6677" y2="325.0081" gradientTransform="matrix(-9.007883e-002 0.9959 0.9959 9.007883e-002 382.8211 0.3908)">
	<stop  offset="0" style="stop-color:#5533BB"/>
	<stop  offset="0.1293" style="stop-color:#632FBA"/>
	<stop  offset="0.3751" style="stop-color:#8923B6"/>
	<stop  offset="0.7084" style="stop-color:#C511B0"/>
	<stop  offset="1" style="stop-color:#FF00AA"/>
</linearGradient>
<path fill="url(#SVGID_2_)" d="M413.1,935.1l299.5-249.8c67,33.4,149.8,25.7,212.4-26.4c65.8-54.9,86.1-144.4,59.4-219.8L843,557
	l-82.4-98.7l141.8-121.1c-69.2-42.8-161.1-35.9-226.9,19c-62.5,52.2-85,132.3-64.1,204.2L311.8,810.3c-13.2,11-14.8,29.1-3.8,42.3
	l63.1,75.7C381.9,944.4,403,946.3,413.1,935.1z"/>
</svg>
